<svg width="27" height="28" viewBox="0 0 27 28" fill="none" xmlns="http://www.w3.org/2000/svg">
<path d="M24.9915 7.73516L20.2032 3.6725C20.0413 3.52954 19.8328 3.45065 19.6168 3.45065C19.4008 3.45065 19.1923 3.52954 19.0304 3.6725L18.5157 4.09438C18.3488 3.84992 18.1248 3.6499 17.8631 3.51168C17.6013 3.37346 17.3098 3.30123 17.0138 3.30125C16.7624 3.29836 16.5134 3.35018 16.284 3.45313C16.0794 3.18956 15.8171 2.97644 15.5172 2.83016C15.2174 2.68388 14.8879 2.60835 14.5543 2.60938C14.3484 2.61108 14.1438 2.64234 13.9468 2.70219C13.7614 2.76124 13.5842 2.84345 13.4194 2.94688C13.2243 2.70939 12.9789 2.51811 12.701 2.38681C12.4231 2.2555 12.1195 2.18743 11.8121 2.1875C11.3277 2.19225 10.8597 2.3636 10.4867 2.67276C10.1137 2.98191 9.85849 3.41003 9.76396 3.88516C9.66943 4.3603 9.74132 4.85349 9.96757 5.28187C10.1938 5.71025 10.5606 6.04769 11.0063 6.2375C11.0063 6.30078 10.981 6.35984 10.9768 6.42313C10.9747 6.46388 10.9747 6.50471 10.9768 6.54547C10.9769 6.86789 11.0644 7.18425 11.2299 7.46094C11.2667 7.5247 11.3196 7.57772 11.3832 7.61472C11.4469 7.65173 11.5191 7.67143 11.5927 7.67188H14.3434L14.2632 7.73516C14.1196 7.86311 14.0178 8.03135 13.9711 8.21796C13.9245 8.40458 13.9351 8.60092 14.0016 8.78141C14.0553 8.94378 14.1571 9.086 14.2935 9.18922C14.4299 9.29244 14.5944 9.35178 14.7652 9.35938H16.0309V14.8438H13.0777C13.0222 14.8434 12.9672 14.8541 12.9158 14.8751C12.8644 14.8961 12.8176 14.927 12.7782 14.9661L6.32773 21.4208V14.9197C6.71091 15.1465 7.14808 15.266 7.59335 15.2656C8.10863 15.2683 8.61247 15.1137 9.03752 14.8224C9.46258 14.5311 9.78861 14.1171 9.97205 13.6355C10.1555 13.154 10.1876 12.6279 10.0641 12.1277C9.94058 11.6274 9.66733 11.1768 9.28085 10.8359C9.34226 10.6308 9.37074 10.4172 9.36523 10.2031C9.36345 9.76482 9.22518 9.33796 8.96963 8.98186C8.71409 8.62575 8.35396 8.3581 7.93929 8.21609C7.98958 8.03906 8.01513 7.85592 8.01523 7.67188C8.01523 7.11243 7.79299 6.57591 7.39741 6.18032C7.00182 5.78474 6.46529 5.5625 5.90585 5.5625C5.34641 5.5625 4.80988 5.78474 4.4143 6.18032C4.01872 6.57591 3.79648 7.11243 3.79648 7.67188C3.79657 7.85592 3.82213 8.03906 3.87242 8.21609C3.45775 8.3581 3.09762 8.62575 2.84208 8.98186C2.58653 9.33796 2.44826 9.76482 2.44648 10.2031C2.44097 10.4172 2.46945 10.6308 2.53085 10.8359C2.14438 11.1768 1.87113 11.6274 1.74762 12.1277C1.62411 12.6279 1.65622 13.154 1.83966 13.6355C2.0231 14.1171 2.34913 14.5311 2.77418 14.8224C3.19924 15.1137 3.70307 15.2683 4.21835 15.2656C4.66363 15.266 5.1008 15.1465 5.48398 14.9197V22.2645L4.46726 23.2813H2.95273C2.61706 23.2813 2.29515 23.4146 2.0578 23.6519C1.82045 23.8893 1.6871 24.2112 1.6871 24.5469C1.6871 24.8825 1.82045 25.2045 2.0578 25.4418C2.29515 25.6792 2.61706 25.8125 2.95273 25.8125H4.64023C4.96326 25.8132 5.2832 25.7497 5.58155 25.6259C5.8799 25.5021 6.15073 25.3203 6.37835 25.0911L14.0944 17.375H15.1871V21.6317C15.0479 21.6063 14.9067 21.5936 14.7652 21.5938C14.3163 21.5949 13.8757 21.7155 13.4887 21.9431C13.1018 22.1707 12.7823 22.4971 12.563 22.8889C12.4545 22.8686 12.3444 22.8587 12.234 22.8594C11.6745 22.8594 11.138 23.0816 10.7424 23.4772C10.3468 23.8728 10.1246 24.4093 10.1246 24.9688C10.1273 25.1468 10.1514 25.3238 10.1963 25.4961C10.2202 25.5889 10.275 25.6708 10.3517 25.7283C10.4284 25.7858 10.5224 25.8155 10.6182 25.8125H24.0465C24.1584 25.8125 24.2657 25.7681 24.3448 25.6889C24.4239 25.6098 24.4684 25.5025 24.4684 25.3906V16.9531C24.4684 16.8412 24.4239 16.7339 24.3448 16.6548C24.2657 16.5757 24.1584 16.5313 24.0465 16.5313H23.6246V9.35938H24.4684C24.645 9.35865 24.817 9.30248 24.9601 9.19878C25.1031 9.09509 25.21 8.9491 25.2657 8.78141C25.3307 8.59969 25.3394 8.40256 25.2904 8.21586C25.2415 8.02916 25.1373 7.86161 24.9915 7.73516ZM11.8543 6.82813C11.8273 6.73342 11.8131 6.63551 11.8121 6.53703V6.47375C11.8209 6.35496 11.8524 6.23896 11.9049 6.13203C11.9395 6.0578 11.9834 5.98832 12.0357 5.92531L12.0821 5.87469C12.1244 5.82818 12.171 5.7858 12.2213 5.74813L12.293 5.70172C12.3472 5.67078 12.4036 5.64399 12.4618 5.62156L12.5335 5.60047C12.6101 5.57693 12.6896 5.56415 12.7698 5.5625H12.8077C12.9041 5.56531 12.9985 5.53502 13.0753 5.47669C13.152 5.41835 13.2065 5.33548 13.2296 5.24188C13.2422 5.17922 13.2422 5.11468 13.2296 5.05203C13.2094 4.9649 13.1994 4.8757 13.2001 4.78625C13.202 4.70415 13.2105 4.62233 13.2254 4.54156V4.48672C13.2502 4.42134 13.2798 4.35788 13.314 4.29688V4.25469C13.3464 4.18638 13.383 4.12016 13.4237 4.05641C13.474 3.98419 13.5305 3.91644 13.5924 3.85391C13.7502 3.70469 13.941 3.59483 14.1493 3.53328C14.2798 3.48751 14.4162 3.46052 14.5543 3.45313C14.8077 3.45516 15.0554 3.5287 15.2688 3.66528C15.4823 3.80186 15.6528 3.99593 15.7609 4.22516C15.788 4.28304 15.8279 4.334 15.8776 4.3742C15.9273 4.41439 15.9855 4.44277 16.0477 4.45719C16.1097 4.47174 16.1741 4.47208 16.2362 4.4582C16.2983 4.44432 16.3565 4.41657 16.4063 4.37703C16.5161 4.28703 16.6443 4.22232 16.782 4.18751C16.9196 4.1527 17.0632 4.14865 17.2025 4.17563C17.3419 4.20262 17.4736 4.25998 17.5883 4.34365C17.7029 4.42731 17.7978 4.53522 17.866 4.65969L15.3137 6.82813H11.8543ZM18.984 20.75H20.6715V21.5938H18.984V20.75ZM20.6715 19.9063H18.984V19.0625H20.6715V19.9063ZM18.984 22.4375H20.6715V23.2813H18.984V22.4375ZM20.6715 18.2188H18.984V17.375H20.6715V18.2188ZM12.234 23.7031C12.3782 23.7047 12.5211 23.7318 12.6559 23.7833C12.76 23.8202 12.8744 23.8148 12.9746 23.7683C13.0748 23.7217 13.1527 23.6377 13.1916 23.5344C13.3116 23.2134 13.5263 22.9366 13.8074 22.7406C14.0885 22.5447 14.4226 22.439 14.7652 22.4375C14.9077 22.4403 15.0493 22.4601 15.1871 22.4966V24.9688H10.9684C10.9684 24.6331 11.1017 24.3112 11.339 24.0738C11.5764 23.8365 11.8983 23.7031 12.234 23.7031ZM18.984 24.125H20.6715V24.9688H18.984V24.125ZM21.0934 16.5313H17.7184V12.7344C17.7184 12.1749 17.9406 11.6384 18.3362 11.2428C18.7318 10.8472 19.2683 10.625 19.8277 10.625C20.3872 10.625 20.9237 10.8472 21.3193 11.2428C21.7149 11.6384 21.9371 12.1749 21.9371 12.7344V16.5313H21.0934Z" fill="#BA9778"/>
</svg>
