<svg width="30" height="30" viewBox="0 0 30 30" fill="none" xmlns="http://www.w3.org/2000/svg">
<path d="M15.0004 23.7498C14.7522 23.7512 14.5091 23.6787 14.3022 23.5415C14.0953 23.4042 13.9339 23.2084 13.8387 22.9791C13.7435 22.7498 13.7187 22.4974 13.7676 22.2539C13.8164 22.0105 13.9366 21.7871 14.1129 21.6123L20.7379 14.9998L14.1129 8.38729C13.9082 8.14816 13.8011 7.84057 13.8133 7.52597C13.8254 7.21138 13.9559 6.91295 14.1785 6.69034C14.4011 6.46772 14.6995 6.3373 15.0141 6.32515C15.3287 6.313 15.6363 6.42001 15.8754 6.62479L23.3754 14.1248C23.6082 14.359 23.7389 14.6758 23.7389 15.006C23.7389 15.3363 23.6082 15.6531 23.3754 15.8873L15.8754 23.3873C15.6426 23.6182 15.3284 23.7484 15.0004 23.7498Z" fill="white"/>
<path d="M7.50043 23.7502C7.25215 23.7517 7.00907 23.6791 6.80217 23.5419C6.59527 23.4046 6.43393 23.2089 6.33872 22.9796C6.24351 22.7503 6.21875 22.4978 6.26758 22.2544C6.31642 22.0109 6.43665 21.7876 6.61293 21.6127L13.2379 15.0002L6.61293 8.38773C6.37755 8.15235 6.24532 7.83311 6.24532 7.50023C6.24532 7.16735 6.37755 6.84811 6.61293 6.61273C6.84831 6.37735 7.16756 6.24512 7.50043 6.24512C7.83331 6.24512 8.15255 6.37735 8.38793 6.61273L15.8879 14.1127C16.1207 14.3469 16.2514 14.6638 16.2514 14.994C16.2514 15.3242 16.1207 15.641 15.8879 15.8752L8.38793 23.3752C8.27217 23.4933 8.13411 23.5873 7.98177 23.6517C7.82942 23.716 7.66582 23.7495 7.50043 23.7502Z" fill="white"/>
</svg>
