<svg width="27" height="28" viewBox="0 0 27 28" fill="none" xmlns="http://www.w3.org/2000/svg">
<path fill-rule="evenodd" clip-rule="evenodd" d="M16.875 2.75H19.125C21.2463 2.75 22.307 2.75 22.966 3.40901C23.625 4.06802 23.625 5.12868 23.625 7.25V24.4062H24.75C25.216 24.4062 25.5938 24.784 25.5938 25.25C25.5938 25.716 25.216 26.0938 24.75 26.0938H2.25C1.78401 26.0938 1.40625 25.716 1.40625 25.25C1.40625 24.784 1.78401 24.4062 2.25 24.4062H3.375V10.625C3.375 8.50368 3.375 7.44302 4.03401 6.78401C4.69302 6.125 5.75368 6.125 7.875 6.125H12.375C14.4963 6.125 15.557 6.125 16.216 6.78401C16.875 7.44302 16.875 8.50368 16.875 10.625V24.4062H18.5625V10.625L18.5625 10.5243C18.5626 9.55049 18.5627 8.65761 18.4651 7.93128C18.3575 7.13145 18.1045 6.28607 17.4092 5.59077C16.7139 4.89546 15.8685 4.64246 15.0687 4.53492C14.3526 4.43865 13.4746 4.43739 12.5168 4.43749C12.6116 4.00184 12.7699 3.67316 13.034 3.40901C13.693 2.75 14.7537 2.75 16.875 2.75ZM5.90625 9.5C5.90625 9.03401 6.28401 8.65625 6.75 8.65625H13.5C13.966 8.65625 14.3438 9.03401 14.3438 9.5C14.3438 9.96599 13.966 10.3438 13.5 10.3438H6.75C6.28401 10.3438 5.90625 9.96599 5.90625 9.5ZM5.90625 12.875C5.90625 12.409 6.28401 12.0312 6.75 12.0312H13.5C13.966 12.0312 14.3438 12.409 14.3438 12.875C14.3438 13.341 13.966 13.7188 13.5 13.7188H6.75C6.28401 13.7188 5.90625 13.341 5.90625 12.875ZM5.90625 16.25C5.90625 15.784 6.28401 15.4062 6.75 15.4062H13.5C13.966 15.4062 14.3438 15.784 14.3438 16.25C14.3438 16.716 13.966 17.0938 13.5 17.0938H6.75C6.28401 17.0938 5.90625 16.716 5.90625 16.25ZM10.125 21.0312C10.591 21.0312 10.9688 21.409 10.9688 21.875V24.4062H9.28125V21.875C9.28125 21.409 9.65901 21.0312 10.125 21.0312Z" fill="#BA9778"/>
</svg>
