<svg width="45" height="45" viewBox="0 0 45 45" fill="none" xmlns="http://www.w3.org/2000/svg">
<circle cx="22.5" cy="22.5" r="22.5" fill="white"/>
<path d="M20.8737 15.7589L21.5768 17.0187C22.2113 18.1556 21.9566 19.6471 20.9573 20.6465C20.9573 20.6465 20.9573 20.6465 20.9573 20.6465C20.9572 20.6466 19.7452 21.8588 21.9429 24.0564C24.1399 26.2535 25.3521 25.0429 25.3529 25.0421C25.3529 25.0421 25.3529 25.0421 25.3529 25.042C26.3523 24.0427 27.8437 23.788 28.9806 24.4225L30.2405 25.1256C31.9573 26.0837 32.16 28.4914 30.651 30.0004C29.7443 30.9071 28.6334 31.6127 27.4055 31.6592C25.3383 31.7376 21.8278 31.2145 18.3064 27.693C14.7849 24.1715 14.2617 20.661 14.3401 18.5939C14.3867 17.3659 15.0922 16.2551 15.999 15.3483C17.508 13.8393 19.9156 14.0421 20.8737 15.7589Z" fill="#BA9778"/>
<path d="M24.3648 12.0368C24.4365 11.5938 24.8552 11.2934 25.2982 11.3651C25.3256 11.3703 25.4138 11.3868 25.4601 11.3971C25.5525 11.4177 25.6814 11.4494 25.8422 11.4962C26.1637 11.5899 26.6129 11.7441 27.152 11.9913C28.2313 12.4861 29.6676 13.3517 31.158 14.8421C32.6485 16.3326 33.5141 17.7689 34.0089 18.8482C34.256 19.3873 34.4103 19.8364 34.5039 20.1579C34.5508 20.3187 34.5825 20.4477 34.6031 20.5401C34.6133 20.5863 34.6209 20.6234 34.6261 20.6508L34.6323 20.6846C34.7041 21.1276 34.4063 21.5637 33.9633 21.6354C33.5216 21.7069 33.1055 21.4079 33.0321 20.967C33.0298 20.9551 33.0236 20.9233 33.0169 20.8933C33.0035 20.8333 32.9804 20.7382 32.9438 20.6124C32.8705 20.3607 32.7431 19.9866 32.5317 19.5254C32.1094 18.6042 31.35 17.3322 30.009 15.9912C28.668 14.6502 27.3959 13.8908 26.4748 13.4684C26.0136 13.257 25.6395 13.1297 25.3878 13.0564C25.262 13.0197 25.1038 12.9834 25.0438 12.9701C24.6029 12.8966 24.2933 12.4785 24.3648 12.0368Z" fill="#BA9778"/>
<path fill-rule="evenodd" clip-rule="evenodd" d="M24.6099 15.7737C24.7331 15.3423 25.1829 15.0924 25.6143 15.2157L25.3911 15.9969C25.6143 15.2157 25.6143 15.2157 25.6143 15.2157L25.6159 15.2162L25.6175 15.2166L25.6212 15.2177L25.6296 15.2202L25.651 15.2269C25.6673 15.2321 25.6877 15.2389 25.712 15.2475C25.7607 15.2648 25.825 15.2893 25.9039 15.3231C26.0617 15.3908 26.2774 15.4952 26.5422 15.652C27.0725 15.9658 27.7964 16.4871 28.6467 17.3375C29.4971 18.1879 30.0184 18.9118 30.3322 19.442C30.489 19.7069 30.5935 19.9225 30.6611 20.0804C30.6949 20.1592 30.7195 20.2235 30.7367 20.2722C30.7454 20.2965 30.7522 20.3169 30.7574 20.3333L30.7641 20.3547L30.7666 20.3631L30.7676 20.3667L30.7681 20.3684C30.7681 20.3684 30.7685 20.3699 29.9873 20.5931L30.7685 20.3699C30.8918 20.8014 30.642 21.2511 30.2105 21.3744C29.7827 21.4966 29.337 21.252 29.2093 20.8273L29.2053 20.8156C29.1995 20.7993 29.1875 20.7673 29.1675 20.7205C29.1274 20.627 29.0547 20.474 28.9338 20.2697C28.6922 19.8615 28.256 19.2448 27.4977 18.4865C26.7394 17.7283 26.1227 17.292 25.7146 17.0504C25.5103 16.9295 25.3573 16.8568 25.2638 16.8168C25.217 16.7967 25.1849 16.7847 25.1686 16.779L25.1569 16.775C24.7322 16.6473 24.4876 16.2015 24.6099 15.7737Z" fill="#BA9778"/>
</svg>
