<svg width="26" height="26" viewBox="0 0 26 26" fill="none" xmlns="http://www.w3.org/2000/svg">
<g clip-path="url(#clip0_56_19626)">
<path d="M25.5636 11.8355L21.6231 7.89511V3.34325C21.6231 2.52021 20.9562 1.85321 20.132 1.85321C19.3096 1.85321 18.6426 2.52021 18.6426 3.34325V4.91465L15.7087 1.98058C14.2581 0.530792 11.736 0.533363 10.2888 1.98321L0.436213 11.8355C-0.145404 12.4183 -0.145404 13.3613 0.436213 13.9432C1.01809 14.5258 1.96289 14.5258 2.54456 13.9432L12.3962 4.09056C12.7171 3.77131 13.2828 3.77131 13.602 4.08962L23.4553 13.9432C23.5936 14.0816 23.7579 14.1915 23.9388 14.2663C24.1196 14.3412 24.3135 14.3796 24.5092 14.3794C24.8908 14.3794 25.2724 14.2343 25.5636 13.9432C26.1455 13.3613 26.1455 12.4184 25.5636 11.8355Z" fill="#BA9778"/>
<path d="M13.5174 6.91867C13.2312 6.63258 12.7677 6.63258 12.4823 6.91867L3.81596 15.5824C3.67864 15.72 3.60153 15.9064 3.60156 16.1008V22.4198C3.60156 23.9026 4.80384 25.1048 6.2866 25.1048H10.5773V18.46H15.4214V25.1048H19.7122C21.1949 25.1048 22.3972 23.9026 22.3972 22.4198V16.1008C22.3972 15.9059 22.3203 15.7192 22.1828 15.5824L13.5174 6.91867Z" fill="#BA9778"/>
</g>
<defs>
<clipPath id="clip0_56_19626">
<rect width="26" height="26" fill="white"/>
</clipPath>
</defs>
</svg>
