<svg width="50" height="51" viewBox="0 0 50 51" fill="none" xmlns="http://www.w3.org/2000/svg">
<path fill-rule="evenodd" clip-rule="evenodd" d="M42.782 43.3413C39.7311 46.3923 34.8206 46.3923 24.9997 46.3923C15.1787 46.3923 10.2683 46.3923 7.21731 43.3413C4.16634 40.2903 4.16634 35.3799 4.16634 25.5589C4.16634 15.738 4.16634 10.8275 7.21731 7.77656C10.2683 4.72559 15.1787 4.72559 24.9997 4.72559C34.8206 4.72559 39.7311 4.72559 42.782 7.77656C45.833 10.8275 45.833 15.738 45.833 25.5589C45.833 35.3799 45.833 40.2903 42.782 43.3413ZM34.8955 25.5589C34.8955 24.696 34.196 23.9964 33.333 23.9964H20.4386L24.0212 20.4138C24.6314 19.8036 24.6314 18.8143 24.0212 18.2041C23.411 17.5939 22.4217 17.5939 21.8115 18.2041L15.5615 24.4541C15.2685 24.7471 15.1038 25.1445 15.1038 25.5589C15.1038 25.9733 15.2685 26.3707 15.5615 26.6638L21.8115 32.9138C22.4217 33.524 23.411 33.524 24.0212 32.9138C24.6314 32.3036 24.6314 31.3143 24.0212 30.7041L20.4386 27.1214H33.333C34.196 27.1214 34.8955 26.4219 34.8955 25.5589Z" fill="#191919"/>
</svg>
