<svg width="26" height="26" viewBox="0 0 26 26" fill="none" xmlns="http://www.w3.org/2000/svg">
<g clip-path="url(#clip0_56_19633)">
<path d="M10.7178 12.2383H12.2361V13.7617H10.7178V12.2383ZM10.7178 6.14453H12.2361V7.66797H10.7178V6.14453ZM10.7178 9.19141H12.2361V10.7148H10.7178V9.19141ZM10.7178 15.2852H12.2361V16.8086H10.7178V15.2852ZM13.7596 12.2383H15.2881V13.7617H13.7596V12.2383ZM13.7596 6.14453H15.2881V7.66797H13.7596V6.14453ZM13.7596 9.19141H15.2881V10.7148H13.7596V9.19141ZM13.7596 15.2852H15.2881V16.8086H13.7596V15.2852ZM10.7178 22.1407V26.0001H12.2412V21.379H11.4795C11.0594 21.379 10.7178 21.7207 10.7178 22.1407ZM14.5264 21.379H13.7646V26.0001H15.2881V22.1407C15.2881 21.7207 14.9464 21.379 14.5264 21.379Z" fill="#BA9778"/>
<path d="M25.2383 24.4765H24.4744V22.7589C25.3414 22.4357 25.9644 21.6016 25.9706 20.6273L25.9999 17.5921C26.0082 16.3194 24.9806 15.2851 23.7078 15.2851H23.6784C22.4145 15.2851 21.3862 16.3134 21.3862 17.5774V20.6102C21.3862 21.6198 22.0427 22.4785 22.9509 22.7833V24.4765H19.8555V6.90618C19.8555 6.48551 19.5144 6.14446 19.0938 6.14446H16.8111V17.5703C16.8111 17.991 16.4701 18.332 16.0494 18.332H9.95566C9.53499 18.332 9.19395 17.991 9.19395 17.5703V6.14446H6.90625C6.48558 6.14446 6.14453 6.48551 6.14453 6.90618V24.4765H3.04901V22.7728C3.93631 22.4604 4.57803 21.6162 4.58433 20.6273L4.61368 17.5921C4.6218 16.3193 3.59435 15.2851 2.32152 15.2851H2.29216C1.02827 15.2851 0 16.3134 0 17.5773V20.6101C0 21.6052 0.637609 22.4539 1.52557 22.77V24.4765H0.761719C0.341047 24.4765 0 24.8176 0 25.2383C0 25.6589 0.341047 26 0.761719 26H9.19395V22.1406C9.19395 20.8806 10.2191 19.8554 11.4791 19.8554H14.526C15.786 19.8554 16.8111 20.8806 16.8111 22.1406V26H25.2383C25.659 26 26 25.6589 26 25.2383C26 24.8176 25.659 24.4765 25.2383 24.4765ZM8.55664 3.08641L9.18887 2.97774V4.62102H16.8061V1.66657L17.7018 1.51219C18.1167 1.4411 18.395 1.04704 18.3234 0.632663C18.2523 0.217781 17.8587 -0.0599928 17.4434 0.0111009L8.29816 1.58532C7.88328 1.65641 7.605 2.05048 7.6766 2.46485C7.7477 2.88055 8.14242 3.15776 8.55664 3.08641Z" fill="#BA9778"/>
</g>
<defs>
<clipPath id="clip0_56_19633">
<rect width="26" height="26" fill="white"/>
</clipPath>
</defs>
</svg>
