<svg width="50" height="51" viewBox="0 0 50 51" fill="none" xmlns="http://www.w3.org/2000/svg">
<path fill-rule="evenodd" clip-rule="evenodd" d="M7.21796 43.3413C10.2689 46.3923 15.1794 46.3923 25.0003 46.3923C34.8213 46.3923 39.7317 46.3923 42.7827 43.3413C45.8337 40.2903 45.8337 35.3799 45.8337 25.5589C45.8337 15.738 45.8337 10.8275 42.7827 7.77656C39.7317 4.72559 34.8213 4.72559 25.0003 4.72559C15.1794 4.72559 10.2689 4.72559 7.21796 7.77656C4.16699 10.8275 4.16699 15.738 4.16699 25.5589C4.16699 35.3799 4.16699 40.2903 7.21796 43.3413ZM15.1045 25.5589C15.1045 24.696 15.804 23.9964 16.667 23.9964H29.5614L25.9788 20.4138C25.3686 19.8036 25.3686 18.8143 25.9788 18.2041C26.589 17.5939 27.5783 17.5939 28.1885 18.2041L34.4385 24.4541C34.7315 24.7471 34.8962 25.1445 34.8962 25.5589C34.8962 25.9733 34.7315 26.3707 34.4385 26.6638L28.1885 32.9138C27.5783 33.524 26.589 33.524 25.9788 32.9138C25.3686 32.3036 25.3686 31.3143 25.9788 30.7041L29.5614 27.1214H16.667C15.804 27.1214 15.1045 26.4219 15.1045 25.5589Z" fill="#191919"/>
</svg>
