<svg width="50" height="50" viewBox="0 0 50 50" fill="none" xmlns="http://www.w3.org/2000/svg">
<g clip-path="url(#clip0_56_19537)">
<path d="M22.0588 18.0144H50V34.1909C50 34.5809 49.8451 34.955 49.5693 35.2307C49.2935 35.5065 48.9194 35.6615 48.5294 35.6615H47.0588V44.485C47.0588 44.875 46.9039 45.2491 46.6281 45.5249C46.3523 45.8006 45.9783 45.9556 45.5882 45.9556C45.1982 45.9556 44.8242 45.8006 44.5484 45.5249C44.2726 45.2491 44.1176 44.875 44.1176 44.485V35.6615H41.1765V27.5732C41.1765 26.2081 40.6342 24.899 39.6689 23.9337C38.7037 22.9684 37.3945 22.4262 36.0294 22.4262C34.6643 22.4262 33.3552 22.9684 32.3899 23.9337C31.4246 24.899 30.8824 26.2081 30.8824 27.5732V35.6615H23.5294C23.1394 35.6615 22.7653 35.5065 22.4895 35.2307C22.2138 34.955 22.0588 34.5809 22.0588 34.1909V22.4262H17.6471V32.7203C18.0371 32.7203 18.4111 32.8752 18.6869 33.151C18.9627 33.4268 19.1176 33.8009 19.1176 34.1909V38.6026C19.1176 38.9927 18.9627 39.3667 18.6869 39.6425C18.4111 39.9183 18.0371 40.0732 17.6471 40.0732H7.35294C6.96292 40.0732 6.58887 39.9183 6.31308 39.6425C6.03729 39.3667 5.88235 38.9927 5.88235 38.6026V34.1909C5.88235 33.8009 6.03729 33.4268 6.31308 33.151C6.58887 32.8752 6.96292 32.7203 7.35294 32.7203V22.4262H4.41176C4.02174 22.4262 3.64769 22.5811 3.3719 22.8569C3.09611 23.1327 2.94118 23.5067 2.94118 23.8968V44.485C2.94118 44.875 2.78624 45.2491 2.51045 45.5249C2.23466 45.8006 1.86061 45.9556 1.47059 45.9556C1.08056 45.9556 0.706514 45.8006 0.430725 45.5249C0.154937 45.2491 0 44.875 0 44.485V23.8968C0 22.7267 0.46481 21.6045 1.29218 20.7772C2.11954 19.9498 3.24169 19.485 4.41176 19.485H22.0588V18.0144ZM14.7059 22.4262H10.2941V32.7203H14.7059V22.4262ZM33.8235 38.6026H38.2353V35.6615H41.1765V44.485C41.1765 44.875 41.0215 45.2491 40.7457 45.5249C40.47 45.8006 40.0959 45.9556 39.7059 45.9556C39.3159 45.9556 38.9418 45.8006 38.666 45.5249C38.3902 45.2491 38.2353 44.875 38.2353 44.485V41.5438H33.8235V44.485C33.8235 44.875 33.6686 45.2491 33.3928 45.5249C33.117 45.8006 32.743 45.9556 32.3529 45.9556C31.9629 45.9556 31.5889 45.8006 31.3131 45.5249C31.0373 45.2491 30.8824 44.875 30.8824 44.485V35.6615H33.8235V38.6026ZM38.2353 35.6615H33.8235V27.5732C33.8235 26.9882 34.0559 26.4271 34.4696 26.0134C34.8833 25.5998 35.4444 25.3673 36.0294 25.3673C36.6144 25.3673 37.1755 25.5998 37.5892 26.0134C38.0029 26.4271 38.2353 26.9882 38.2353 27.5732V35.6615ZM22.9463 15.0732L33.0051 5.60558C33.8235 4.83522 34.9051 4.40625 36.029 4.40625C37.153 4.40625 38.2345 4.83522 39.0529 5.60558L49.1125 15.0732H22.9463Z" fill="#BA9778"/>
</g>
<defs>
<clipPath id="clip0_56_19537">
<rect width="50" height="50" fill="white"/>
</clipPath>
</defs>
</svg>
