<svg width="80" height="80" viewBox="0 0 80 80" fill="none" xmlns="http://www.w3.org/2000/svg">
<rect opacity="0.8" width="80" height="80" fill="#F1F1F1"/>
<g clip-path="url(#clip0_56_19581)">
<path d="M50.3399 46.4179L47.9376 42.5461C50.4587 45.6786 55.1237 45.8343 57.8471 42.9383C60.3338 40.2941 60.2069 36.1414 57.5623 33.6543C54.9192 31.1684 50.7657 31.2945 48.2785 33.9392C46.3677 35.971 46.0211 38.86 47.0969 41.191L41.286 31.8254L49.9092 29.337C52.5872 28.5643 53.8529 25.4989 52.4922 23.0607C51.5042 21.2904 49.4536 20.4464 47.506 21.0085L34.4509 24.7757C31.0661 25.7526 29.5502 29.6873 31.4088 32.683L35.3547 39.0427L28.4345 43.3365C36.76 43.5279 42.7754 46.0627 50.3399 46.4179ZM16.8658 50.7318C35.7912 45.3519 42.9388 56.2128 63.9048 50.7401C64.6876 50.5358 65.1565 49.7355 64.9522 48.9528C64.7479 48.17 63.9476 47.7012 63.1649 47.9054C43.0219 53.1636 35.8645 42.2853 16.0647 47.9137C15.2866 48.1349 14.835 48.945 15.0562 49.7233C15.2775 50.5016 16.0879 50.953 16.8658 50.7318ZM63.1649 54.7413C42.9849 60.0091 35.9037 49.1099 16.0647 54.7496C15.2866 54.9708 14.835 55.781 15.0562 56.5592C15.2774 57.3374 16.0878 57.789 16.8658 57.5677C35.7912 52.1878 42.9388 63.0488 63.9048 57.576C64.6876 57.3717 65.1565 56.5714 64.9522 55.7887C64.7479 55.0059 63.9476 54.537 63.1649 54.7413Z" fill="#BA9778"/>
</g>
<defs>
<clipPath id="clip0_56_19581">
<rect width="50" height="50" fill="white" transform="translate(15 15)"/>
</clipPath>
</defs>
</svg>
