<svg width="80" height="80" viewBox="0 0 80 80" fill="none" xmlns="http://www.w3.org/2000/svg">
<rect opacity="0.8" width="80" height="80" fill="#F1F1F1"/>
<g clip-path="url(#clip0_56_19535)">
<path d="M37.0588 33.0144H65V49.1909C65 49.5809 64.8451 49.955 64.5693 50.2307C64.2935 50.5065 63.9194 50.6615 63.5294 50.6615H62.0588V59.485C62.0588 59.875 61.9039 60.2491 61.6281 60.5249C61.3523 60.8006 60.9783 60.9556 60.5882 60.9556C60.1982 60.9556 59.8242 60.8006 59.5484 60.5249C59.2726 60.2491 59.1176 59.875 59.1176 59.485V50.6615H56.1765V42.5732C56.1765 41.2081 55.6342 39.899 54.6689 38.9337C53.7037 37.9684 52.3945 37.4262 51.0294 37.4262C49.6643 37.4262 48.3552 37.9684 47.3899 38.9337C46.4246 39.899 45.8824 41.2081 45.8824 42.5732V50.6615H38.5294C38.1394 50.6615 37.7653 50.5065 37.4895 50.2307C37.2138 49.955 37.0588 49.5809 37.0588 49.1909V37.4262H32.6471V47.7203C33.0371 47.7203 33.4111 47.8752 33.6869 48.151C33.9627 48.4268 34.1176 48.8009 34.1176 49.1909V53.6026C34.1176 53.9927 33.9627 54.3667 33.6869 54.6425C33.4111 54.9183 33.0371 55.0732 32.6471 55.0732H22.3529C21.9629 55.0732 21.5889 54.9183 21.3131 54.6425C21.0373 54.3667 20.8824 53.9927 20.8824 53.6026V49.1909C20.8824 48.8009 21.0373 48.4268 21.3131 48.151C21.5889 47.8752 21.9629 47.7203 22.3529 47.7203V37.4262H19.4118C19.0217 37.4262 18.6477 37.5811 18.3719 37.8569C18.0961 38.1327 17.9412 38.5067 17.9412 38.8968V59.485C17.9412 59.875 17.7862 60.2491 17.5105 60.5249C17.2347 60.8006 16.8606 60.9556 16.4706 60.9556C16.0806 60.9556 15.7065 60.8006 15.4307 60.5249C15.1549 60.2491 15 59.875 15 59.485V38.8968C15 37.7267 15.4648 36.6045 16.2922 35.7772C17.1195 34.9498 18.2417 34.485 19.4118 34.485H37.0588V33.0144ZM29.7059 37.4262H25.2941V47.7203H29.7059V37.4262ZM48.8235 53.6026H53.2353V50.6615H56.1765V59.485C56.1765 59.875 56.0215 60.2491 55.7457 60.5249C55.47 60.8006 55.0959 60.9556 54.7059 60.9556C54.3159 60.9556 53.9418 60.8006 53.666 60.5249C53.3902 60.2491 53.2353 59.875 53.2353 59.485V56.5438H48.8235V59.485C48.8235 59.875 48.6686 60.2491 48.3928 60.5249C48.117 60.8006 47.743 60.9556 47.3529 60.9556C46.9629 60.9556 46.5889 60.8006 46.3131 60.5249C46.0373 60.2491 45.8824 59.875 45.8824 59.485V50.6615H48.8235V53.6026ZM53.2353 50.6615H48.8235V42.5732C48.8235 41.9882 49.0559 41.4271 49.4696 41.0134C49.8833 40.5998 50.4444 40.3673 51.0294 40.3673C51.6144 40.3673 52.1755 40.5998 52.5892 41.0134C53.0029 41.4271 53.2353 41.9882 53.2353 42.5732V50.6615ZM37.9463 30.0732L48.0051 20.6056C48.8235 19.8352 49.9051 19.4062 51.029 19.4062C52.153 19.4062 53.2345 19.8352 54.0529 20.6056L64.1125 30.0732H37.9463Z" fill="#BA9778"/>
</g>
<defs>
<clipPath id="clip0_56_19535">
<rect width="50" height="50" fill="white" transform="translate(15 15)"/>
</clipPath>
</defs>
</svg>
