<svg width="80" height="80" viewBox="0 0 80 80" fill="none" xmlns="http://www.w3.org/2000/svg">
<rect opacity="0.8" width="80" height="80" fill="#F1F1F1"/>
<g clip-path="url(#clip0_56_19545)">
<path d="M58.743 26.497C58.3237 25.8552 57.4544 25.7617 56.9103 26.2544C54.7043 28.2517 54.5402 28.3881 53.9641 28.9648L50.8234 28.5321L50.5047 29.3945C50.9041 30.2282 50.9592 31.1856 50.6583 32.0596L51.2841 32.1457C50.4679 33.2998 49.7531 34.5224 49.1477 35.7997C49.0462 37.7819 49.2298 39.7683 49.6927 41.6983C50.4069 38.3453 51.8912 35.2044 54.0283 32.5238L55.2817 32.6965C56.2406 32.8293 57.1309 32.1589 57.2637 31.1945C57.3438 30.6128 57.1283 30.0596 56.7338 29.6829L58.5112 28.0736C58.9558 27.6711 59.0709 26.9989 58.743 26.497ZM49.3812 25.0259C48.7533 24.7934 48.0567 25.1147 47.8247 25.7422L47.2119 27.3999C48.0454 27.37 48.8622 27.6383 49.5156 28.1566L50.0976 26.5822C50.3295 25.9547 50.0088 25.2578 49.3812 25.0259Z" fill="#BA9778"/>
<path d="M51.1119 60.9688C53.0826 60.4628 54.5393 58.6745 54.5393 56.5459C54.5402 55.7712 54.3431 55.0092 53.9667 54.3322C53.5716 53.6217 52.9947 53.029 52.2952 52.6147L49.2853 44.9203C47.9749 41.5728 47.5002 37.9563 47.9022 34.3841C47.7771 34.4045 47.923 34.3863 45.4386 34.6651C45.0989 38.4509 45.6432 42.2638 47.0287 45.8032L49.416 51.9059L47.8791 51.7016L46.449 48.0458L46.0783 51.4623L41.593 50.8661C41.2597 51.4027 40.8161 51.8443 40.2237 52.1773L40.9734 52.2135C41.7007 52.2487 42.3104 52.8176 42.346 53.5448C42.3876 54.3967 41.6859 55.0636 40.8744 55.0226L35.9226 54.7833C35.1474 54.7458 34.5492 54.0869 34.5867 53.3117C34.6194 52.6371 35.1407 51.9314 36.1879 51.9822C35.4875 51.4912 34.9669 50.7733 34.7226 49.9528L32.2605 49.6256L33.4755 45.8093C33.5596 45.5452 33.5888 45.2666 33.5614 44.9907L33.1464 40.8109C29.2551 40.085 29.3685 40.1238 28.9732 39.9813L29.4691 44.9749L28.214 48.9175C24.2246 49.1758 21.0684 52.4913 21.0684 56.5459C21.0684 58.783 22.0293 60.7955 23.5606 62.1937L22.4307 63.3239C22.0872 63.6674 22.0237 64.2178 22.3146 64.6068C22.6772 65.0915 23.3679 65.128 23.7799 64.7161L25.1734 63.3225C26.266 63.8953 27.4814 64.1938 28.7149 64.1926C29.8549 64.1926 48.6977 61.2801 48.6977 61.2801L52.077 64.711C52.4525 65.0922 53.0662 65.0971 53.4478 64.7214C53.829 64.3459 53.8337 63.7322 53.4581 63.3508L51.1119 60.9688ZM33.279 56.7839C33.1612 59.1056 31.2746 60.9923 28.9528 61.1099C26.2412 61.2473 24.0138 59.0199 24.1512 56.3083C24.2688 53.9864 26.1554 52.0999 28.4772 51.9821C31.1889 51.8446 33.4163 54.0721 33.279 56.7839ZM41.9864 15.442C39.9041 14.3591 37.3568 15.3441 36.5448 17.5463C35.8753 19.3622 36.6748 21.4297 38.392 22.3225C40.4743 23.4053 43.0213 22.4204 43.8334 20.2183C44.5031 18.4024 43.7037 16.3349 41.9864 15.442Z" fill="#BA9778"/>
<path d="M47.1361 29.1663L41.0914 29.8448L37.4255 25.4773L41.1097 28.0732L45.538 27.5763C45.538 27.5763 39.0258 24.7191 35.0968 22.9814C33.9001 22.4522 32.4381 23.2044 31.903 24.6127L28.0082 34.8668C27.4772 36.2645 28.0054 37.7859 29.2464 38.2573C29.6604 38.4854 29.2573 38.3686 37.2173 39.8534L36.2663 48.6415C36.131 49.8921 37.1111 50.9789 38.3669 50.9789C39.4301 50.9789 40.345 50.1773 40.4622 49.0956L41.6234 38.3644C41.7421 37.268 40.9966 36.2652 39.9125 36.0629L36.5641 35.4384L37.4013 33.4154C37.1169 32.8109 35.0016 28.3124 34.7316 27.7383L39.0035 32.8279C39.376 33.2718 39.9517 33.5115 40.5466 33.445L47.4825 32.6666C48.3794 32.5659 49.0927 31.8206 49.0909 30.9179C49.089 29.8506 48.1674 29.0504 47.1361 29.1663Z" fill="#BA9778"/>
</g>
<defs>
<clipPath id="clip0_56_19545">
<rect width="50" height="50" fill="white" transform="translate(15 15)"/>
</clipPath>
</defs>
</svg>
