<svg width="80" height="80" viewBox="0 0 80 80" fill="none" xmlns="http://www.w3.org/2000/svg">
<rect opacity="0.8" width="80" height="80" fill="#F1F1F1"/>
<g clip-path="url(#clip0_56_19570)">
<path d="M15.6158 18.9531C15.4526 18.9533 15.2961 19.0181 15.1807 19.1335C15.0652 19.2489 15.0003 19.4053 15 19.5685V27.1853C15.0003 27.3485 15.0652 27.5049 15.1807 27.6203C15.2961 27.7357 15.4526 27.8005 15.6158 27.8007H64.3843C64.5475 27.8005 64.704 27.7357 64.8194 27.6203C64.9349 27.5049 64.9999 27.3485 65.0001 27.1853V19.5685C64.9999 19.4053 64.9349 19.2489 64.8194 19.1335C64.704 19.0181 64.5475 18.9533 64.3843 18.9531H15.6158ZM40 41.3469C37.0121 41.3469 34.5813 43.7763 34.5813 46.7625C34.5813 49.7487 37.0122 52.1781 40 52.1781C42.9878 52.1781 45.4187 49.7487 45.4187 46.7625C45.4187 43.7764 42.9879 41.3469 40 41.3469ZM40 49.2242C38.6397 49.2242 37.537 48.122 37.537 46.7625C37.537 45.403 38.6397 44.3009 40 44.3009C41.3603 44.3009 42.463 45.403 42.463 46.7625C42.463 48.122 41.3603 49.2242 40 49.2242Z" fill="#BA9778"/>
<path d="M19.1758 31.4932V40.2651C19.1758 51.7243 28.5177 61.0471 40.0004 61.0471C51.483 61.0471 60.8249 51.7243 60.8249 40.2651V31.4932H19.1758ZM40.0004 55.8706C34.9752 55.8706 30.8871 51.7847 30.8871 46.7626C30.8871 41.7405 34.9754 37.6546 40.0004 37.6546C45.0254 37.6546 49.1137 41.7405 49.1137 46.7626C49.1137 51.7847 45.0255 55.8706 40.0004 55.8706Z" fill="#BA9778"/>
</g>
<defs>
<clipPath id="clip0_56_19570">
<rect width="50" height="50" fill="white" transform="translate(15 15)"/>
</clipPath>
</defs>
</svg>
