<svg width="80" height="80" viewBox="0 0 80 80" fill="none" xmlns="http://www.w3.org/2000/svg">
<rect opacity="0.8" width="80" height="80" fill="#F1F1F1"/>
<path d="M20.1289 37.9583C20.1289 38.4167 20.5039 38.7917 20.9622 38.7917H21.4872V59.1667C21.4872 59.6333 21.8539 60 22.3206 60H27.6539C27.9956 60 28.3039 59.7917 28.4289 59.475L29.2956 57.2833H50.6956L51.5622 59.475C51.6872 59.7917 51.9956 60 52.3372 60H57.6789C58.1456 60 58.5122 59.6333 58.5122 59.1667V38.7917H59.0372C59.4956 38.7917 59.8706 38.4167 59.8706 37.9583C59.8706 37.5 59.4956 37.125 59.0372 37.125H20.9622C20.5039 37.125 20.1289 37.5 20.1289 37.9583ZM52.6697 29.5667L53.6031 34.375H54.8706C56.7122 34.375 58.2039 32.875 58.2039 31.0417V23.3333C58.2039 21.5 56.7122 20 54.8706 20H42.8289C40.9956 20 39.4956 21.5 39.4956 23.3333V31.0417C39.4956 32.875 40.9956 34.375 42.8289 34.375H44.0947L45.0281 29.5667C45.1341 29.0276 45.4238 28.5419 45.8477 28.1924C46.2717 27.8429 46.8037 27.6512 47.3531 27.65H50.3372C51.4789 27.65 52.4539 28.4583 52.6697 29.5667Z" fill="#BA9778"/>
<path d="M50.3374 29.3162H47.354C47.0207 29.3162 46.729 29.5495 46.6707 29.8829L45.5874 35.4579H52.1124L51.029 29.8829C50.9985 29.7223 50.9126 29.5775 50.7861 29.4739C50.6597 29.3703 50.5008 29.3145 50.3374 29.3162ZM35.504 24.8912C35.504 22.4662 33.529 20.4912 31.104 20.4912C28.679 20.4912 26.704 22.4662 26.704 24.8912C26.704 27.3162 28.679 29.2912 31.104 29.2912C33.529 29.2912 35.504 27.3162 35.504 24.8912ZM23.9707 35.4579H38.2374C37.0874 32.6329 34.304 30.6579 31.104 30.6579C27.904 30.6579 25.1207 32.6329 23.9707 35.4579Z" fill="#BA9778"/>
</svg>
