<svg width="181" height="181" viewBox="0 0 181 181" fill="none" xmlns="http://www.w3.org/2000/svg">
<g opacity="0.12">
<path d="M137.603 91.7781C154.518 91.7781 165.916 103.751 165.916 121.49C165.916 137.453 152.815 150.753 135.071 150.753C115.635 150.753 101.273 134.789 101.273 110.406C101.273 54.9835 140.986 32.8146 165.916 30.1504V54.5339C149.012 57.6367 130.007 74.9267 129.156 94.0037C130.007 93.5652 133.379 91.7781 137.603 91.7781ZM51.4231 91.7781C68.3164 91.7781 79.7259 103.751 79.7259 121.49C79.7259 137.453 66.6249 150.753 48.8804 150.753C29.4445 150.753 15.083 134.789 15.083 110.406C15.083 54.9835 54.7953 32.8146 79.7259 30.1504V54.5339C62.8218 57.6367 43.8168 74.9267 42.9656 94.0037C43.8168 93.5652 47.189 91.7781 51.4231 91.7781Z" fill="#BA9778"/>
</g>
</svg>
