<svg width="1225" height="255" viewBox="0 0 1225 255" fill="none" xmlns="http://www.w3.org/2000/svg">
<path d="M1184.47 195.089L1176.08 138.852H1158.83V92.2184H1160.94V88.007H1152.6V69.8775H1151.57V88.007H1145.8V73.1644H1144.77V88.007H1109.91V92.2184H1112.33V186.872H1072.52V144.45H1049.86V40.3465H1051.92V35.2106H1047.39V28.6881H1042.19V26.2229V18.7246V12.2535H1035.9V0.646484H1035.18H1034.41V12.2535H1031.01L1028.95 18.7246H1015.25V28.6881H979.362V35.2106H974.83V40.3465H976.941V108.088H946.919V174.648L913.6 159.96V95.2999H918.956V90.5749H909.481V77.6839H869.004V90.5749H855.77V77.6839H848.972V90.5749H842.175V77.6839H834.708V90.5749H819.053V95.2999H821.422V184.869H806.23V183.944H803.501V158.419H806.23V156.365H803.501V130.84H806.23V128.785H803.501V103.26H806.23V101.257H803.501V75.7323H806.23V73.678H803.501V48.1529H806.23V46.0986H803.501V19.7004H808.187V17.6461H810.607V12.048H765.857V5.78231H767.299V3.98477H742.941V5.78231H744.434V12.048H733.311V17.6461H735.731V19.7004H740.418V46.0986H737.688V48.1529H740.418V73.678H737.688V75.7323H740.418V101.257H737.688V103.26H740.418V128.785H737.688V130.84H740.418V156.365H737.688V158.419H740.418V183.944H737.688V185.999H740.418V206.85H725.175V126.269H663.739V184.869H653.749V2.23861H646.385V6.96358L632.79 10.2505V7.22037H625.374V12.048L611.779 15.3863V11.894H604.415V17.1839L590.768 20.5222V17.5947H583.405V22.3197L569.758 25.6066V23.1414H562.394V202.485H551.992V106.855H513.575V165.661H474.129V115.535H469.288V99.049H472.172V97.4055H459.401V92.2184H458.062V97.4055H453.994V70.8533H452.964V97.4055H447.66V99.049H450.749V115.535H424.744V153.797H399.407L386.173 202.485H359.652V43.428H324.531V37.7272H326.488V35.7756H299.864V37.7272H301.976V43.428V52.6211V161.552H285.394V120.414H291.316V116.665H249.604V91.8075H241.673V86.6716H223.907V91.8075H209.436V180.606H162.06V114.713H122.15V166.739H87.5442V200.019H62.5683V158.162H29.7135V193.856H0V254.511H29.7135H39.7553H56.1827H62.5683H87.5442H122.15H133.788H140.019H162.06H209.436H223.907H241.673H249.604H280.708H285.394H301.976H329.784H343.431H359.652H424.744H439.781H465.168H474.129H514.245H525.007H562.394H566.102H569.758H583.405H590.768H604.415H610.543H611.779H625.374H632.79H644.479H646.385H650.093H653.749H663.739H714.515H721.776H725.175H740.418H767.299H791.914H803.501H821.422H865.966H913.086H913.6H946.919H965.509H976.941H984.099H1039.87H1049.86H1061.81H1072.52H1112.33H1141.88H1147.96H1158.83H1225V195.089H1184.47Z" fill="#658280"/>
</svg>
